<?xml version="1.0" encoding="UTF-8"?><svg xmlns="http://www.w3.org/2000/svg" xmlns:xlink="http://www.w3.org/1999/xlink" fill-opacity="1" color-rendering="auto" color-interpolation="auto" text-rendering="auto" stroke="black" stroke-linecap="square" width="378" stroke-miterlimit="10" shape-rendering="auto" stroke-opacity="1" fill="black" stroke-dasharray="none" font-weight="normal" stroke-width="1" height="70" font-family="'Dialog'" font-style="normal" stroke-linejoin="miter" font-size="12px" stroke-dashoffset="0" image-rendering="auto">
  <!--Generated by ySVG 2.5-->
  <defs id="genericDefs"/>
  <g>
    <defs id="defs1">
      <clipPath clipPathUnits="userSpaceOnUse" id="clipPath1">
        <path d="M0 0 L378 0 L378 70 L0 70 L0 0 Z"/>
      </clipPath>
      <clipPath clipPathUnits="userSpaceOnUse" id="clipPath2">
        <path d="M266 76 L644 76 L644 146 L266 146 L266 76 Z"/>
      </clipPath>
    </defs>
    <g fill="white" text-rendering="geometricPrecision" shape-rendering="geometricPrecision" transform="translate(-266,-76)" stroke="white">
      <rect x="266" width="378" height="70" y="76" clip-path="url(#clipPath2)" stroke="none"/>
    </g>
    <g text-rendering="geometricPrecision" stroke-miterlimit="1.45" shape-rendering="geometricPrecision" transform="matrix(1,0,0,1,-266,-76)" stroke-linecap="butt">
      <path fill="none" d="M281 91 L361 91 L361 131 L281 131 Z" clip-path="url(#clipPath2)"/>
      <text x="305.4639" xml:space="preserve" y="115.1543" clip-path="url(#clipPath2)" font-family="sans-serif" stroke="none">Input</text>
    </g>
    <g text-rendering="geometricPrecision" stroke-miterlimit="1.45" shape-rendering="geometricPrecision" transform="matrix(1,0,0,1,-266,-76)" stroke-linecap="butt">
      <path fill="none" d="M549 91 L629 91 L629 131 L549 131 Z" clip-path="url(#clipPath2)"/>
      <text x="568.1582" xml:space="preserve" y="115.1543" clip-path="url(#clipPath2)" font-family="sans-serif" stroke="none">Output</text>
    </g>
    <g text-rendering="geometricPrecision" stroke-miterlimit="1.45" shape-rendering="geometricPrecision" transform="matrix(1,0,0,1,-266,-76)" stroke-linecap="butt">
      <path fill="none" d="M415 91 L495 91 L495 131 L415 131 Z" clip-path="url(#clipPath2)"/>
      <text x="432.626" xml:space="preserve" y="115.1543" clip-path="url(#clipPath2)" font-family="sans-serif" stroke="none">System</text>
    </g>
    <g text-rendering="geometricPrecision" stroke-miterlimit="1.45" shape-rendering="geometricPrecision" transform="matrix(1,0,0,1,-266,-76)" stroke-linecap="butt">
      <path fill="none" d="M361.0103 111 L407.0268 111" clip-path="url(#clipPath2)"/>
    </g>
    <g text-rendering="geometricPrecision" stroke-miterlimit="1.45" shape-rendering="geometricPrecision" transform="matrix(1,0,0,1,-266,-76)" stroke-linecap="butt">
      <path d="M415.0268 111 L403.0268 106 L406.0268 111 L403.0268 116 Z" stroke="none" clip-path="url(#clipPath2)"/>
      <path fill="none" d="M495.0103 111 L541.0268 111" clip-path="url(#clipPath2)"/>
      <path d="M549.0268 111 L537.0268 106 L540.0268 111 L537.0268 116 Z" clip-path="url(#clipPath2)" stroke="none"/>
    </g>
  </g>
</svg>
